#!OML:ASF E:/inclinewalkrobotboard/Project1/Captureday1/Session1/subject1.ASF
:FULLY-SPECIFIED
:DEGREES
263
root 0 0 0 -2.036070094654115 -4.7080140849993795 -6.941043468456128
lowerback 11.538767945569392 1.5931619981075444 6.156248588131169
upperback 0.35678398507993336 3.0224920406395728 2.291058557239025
thorax -5.915507222254753 1.3644179292162433 -1.5205679132299488
lowerneck -17.323668723344614 -3.5573298831435256 -1.4382203901554274
upperneck 22.084396396092906 -4.589617519647952 0.06889723679000359
head 10.014838973715849 -2.2194023130948306 -0.33983358898214405
rclavicle 7.798906979538846E-16 1.5341641489932598E-15
rhumerus -29.919683676427645 -19.732820929356564 -77.7208029945786
rradius 27.744632685169954
rwrist 1.575917617572494
rhand -18.948865045726077 23.660210723283825
rfingers 7.125020000000019
rthumb 7.354355226213332 -6.225093609237664
lclavicle -2.3309420795509263E-15 1.9561592612239437E-15
lhumerus -34.774858858229685 -1.1252510543235001 84.8687419076849
lradius 28.390682835755474
lwrist 6.750190054254164
lhand -27.265178808192402 23.79722106235404
lfingers 7.125020000000018
lthumb -0.6687732388584307 53.78112023072937
rfemur -0.7439808730985895 8.425207009885392 36.658613252153785
rtibia 32.22447349168114
rfoot -21.8933275166587 -7.499640951005411
rtoes 8.654608646526313
lfemur -27.726086239099928 3.9364983156964266 -12.881287412440027
ltibia 54.834100066022884
lfoot -3.9371380404925507 -3.3090948750545075
ltoes -2.3921646509006997
264
root 0 0 0 -1.7742451963173203 -5.017692310173402 -7.102673102684342
lowerback 11.666157488814113 1.7674649039301957 6.461915975324044
upperback 0.6312276780097333 3.2706248632499415 2.257764599575657
thorax -5.659197403918269 1.4808507862745033 -1.7595092214022725
lowerneck -17.40757904654709 -3.5714636630133634 -1.5069648643018174
upperneck 20.50770876104619 -4.553142086080033 0.16887635255190103
head 9.450501304204519 -2.222066665106467 -0.2821611564961764
rclavicle 1.542775821851069E-15 9.53105911683877E-16
rhumerus -28.671328623391357 -18.1637605060398 -78.002076244347
rradius 28.939281385030156
rwrist 0.6788690779571143
rhand -19.156330959974376 24.253441034392758
rfingers 7.125020000000017
rthumb 7.155644523789069 -5.640504583073383
lclavicle -1.8240243865028455E-15 1.5153628827860572E-15
lhumerus -35.065906228468606 -0.9500247814104715 84.96450679279573
lradius 28.222166027079005
lwrist 6.704743747626237
lhand -27.28797858819375 23.74880140399756
lfingers 7.125020000000015
lthumb -0.6902881521070388 53.738001813131575
rfemur 0.11552784619534684 8.428613090906174 36.66398261780526
rtibia 31.86996795703946
rfoot -22.121302710656945 -7.6634999069783785
rtoes 7.961099289322464
lfemur -30.961202462396106 0.7759385462197854 -10.374495862276545
ltibia 35.17313449622306
lfoot -7.082390223410398 3.064383583093859
ltoes -6.186704511881107
265
root 0 0 0 -1.6217732679241461 -5.210881344989772 -7.173993831368908
lowerback 11.51261522673149 1.837254165583166 6.634311019237951
upperback 0.7906723676756664 3.3653481229398574 2.240179192167816
thorax -5.385925241652619 1.5256956000448616 -1.8817041286109633
lowerneck -17.534994834890604 -3.5262006893973674 -1.583378099141218
upperneck 19.804604522969022 -4.459049628744656 0.24278497496501195
head 9.190250652685467 -2.1885677021156558 -0.23299482602624627
rclavicle 1.9717825701120137E-15 5.237773036882545E-16
rhumerus -27.96601856137275 -17.40857190083522 -77.96836727727029
rradius 29.692181903010372
rwrist 0.13464511954461855
rhand -19.28586025017494 24.58969154338204
rfingers 7.125020000000017
rthumb 7.031083198006221 -5.320984969988356
lclavicle -1.720781284222956E-15 1.1373678426918916E-15
lhumerus -35.20177100152279 -0.7550089497730372 84.90585492676884
lradius 28.030394968464535
lwrist 6.588370576117729
lhand -27.291103476916216 23.715015059139336
lfingers 7.125020000000016
lthumb -0.6936093112993875 53.70542229064098
rfemur 3.3348063077969003 8.351797427826446 36.00001778005298
rtibia 29.650008541850603
rfoot -22.019628649739744 -7.273051992224287
rtoes 5.152350901021355
lfemur -27.329408346100397 -2.9943048987619973 -11.049568086681187
ltibia 21.705806112150587
lfoot -5.059833919477452 4.246677201910445
ltoes -4.281539630377178
266
root 0 0 0 -1.6740711055859199 -5.289045310023358 -7.098794426113061
lowerback 11.485130487072547 1.8718325879630706 6.567406190688755
upperback 0.8205161756285536 3.3976940429340363 2.204857294200593
thorax -5.3370661159275095 1.5432070882537978 -1.8844502227488387
lowerneck -17.522255781541084 -3.5297529131921097 -1.6079216365907185
upperneck 19.490898335676896 -4.467690574276459 0.32427140582494385
head 9.07551948992483 -2.189304389520678 -0.20132086720321896
rclavicle 2.3242376717398612E-15 -8.487616288557081E-16
rhumerus -27.860805152718644 -17.537379209640534 -77.82652282109899
rradius 29.776520722336553
rwrist 0.0914460146925613
rhand -19.32007330792895 24.617650899907847
rfingers 7.125020000000017
rthumb 6.998857822930867 -5.295035661351061
lclavicle -1.4452737810625823E-15 -3.233680235969688E-16
lhumerus -35.384308007990505 -0.4479085789937617 84.76271032482217
lradius 27.645220125773168
lwrist 6.326139544125434
lhand -27.27281385387152 23.828733605723137
lfingers 7.125020000000017
lthumb -0.6756087111112254 53.821261872511286
rfemur 10.458295731857927 8.306781293047125 35.22945285792133
rtibia 26.176077451701904
rfoot -21.145643193387805 -5.694047188509609
rtoes -1.2298703327438354
lfemur -26.444288027190535 -4.408532863517992 -11.275851975584104
ltibia 20.170985076028696
lfoot -5.462719977458583 4.61955552027692
ltoes -1.7393789617086242
267
root 0 0 0 -1.9274605944748395 -5.250281180883517 -6.813223203515399
lowerback 11.6006554123924 1.892107816216929 6.230801656532098
upperback 0.7244766187360158 3.3888865371136667 2.1179744075890743
thorax -5.515138934872624 1.5441567512916703 -1.7893336836637728
lowerneck -17.302501508289687 -3.600781183948108 -1.5665481880849876
upperneck 19.448875228657705 -4.608619446823971 0.4417187235533526
head 9.056655983267213 -2.2367588130320213 -0.18128904735065582
rclavicle 1.5939181507530044E-15 -2.2145526295433446E-15
rhumerus -28.16337407827285 -18.29813147390881 -77.52642745261915
rradius 29.425509024416737
rwrist 0.421443262513721
rhand -19.30432832792076 24.435216655144256
rfingers 7.125020000000017
rthumb 7.014990753620871 -5.48612123471446
lclavicle -2.2875935200841588E-15 -1.9552743134706523E-15
lhumerus -35.68330130521913 0.13254451976613962 84.50209028753046
lradius 26.995896361788397
lwrist 5.906218006460643
lhand -27.217372301603568 24.008835863637668
lfingers 7.125020000000018
lthumb -0.6221662612101602 54.008336260568186
rfemur 12.352753550975304 8.22808571430168 35.657104166500915
rtibia 28.04504657236435
rfoot -19.76774000421428 -4.480245570170815
rtoes -4.6831773252307975
lfemur -25.9779804350705 -4.45626207589891 -11.698806935079439
ltibia 20.55297580856533
lfoot -5.503445879628579 4.250857960993534
ltoes -1.4968140724549244
268
root 0 0 0 -2.1091358378248035 -5.195071801229751 -6.35561727833227
lowerback 11.567077412590972 1.9320581138010486 5.744332499686
upperback 0.6037684448756867 3.3803476229601177 1.956155255178409
thorax -5.6361544454271515 1.5482909373788452 -1.6856590231588586
lowerneck -16.9800297126445 -3.6483167576053805 -1.4892555447243867
upperneck 19.513458531982195 -4.73130052999702 0.5831927552659468
head 9.056953315324456 -2.2703000754517406 -0.15527306998232687
rclavicle 8.663739171877494E-16 -2.36424486907573E-15
rhumerus -28.710970007595698 -19.425290488476023 -77.08549180915956
rradius 28.877277837652056
rwrist 0.8570147181624241
rhand -19.27738178333477 24.131048815569958
rfingers 7.125020000000017
rthumb 7.041345079307213 -5.7995221585214125
lclavicle -3.000713569665787E-15 -2.3678392301676223E-15
lhumerus -35.95009263223386 0.9436154632405345 84.11112699108534
lradius 26.196779123385156
lwrist 5.43267203618052
lhand -27.089523162366273 24.29437276194019
lfingers 7.125020000000019
lthumb -0.4989601893067297 54.30023618888082
rfemur 10.8302075757213 6.65713016689568 33.30844205582775
rtibia 34.25687893032958
rfoot -15.112431048974694 -2.6417041659301397
rtoes -5.150641094753619
lfemur -25.085204413248086 -3.9499263116028462 -13.111699215038858
ltibia 21.959055922095764
lfoot -5.177605942008119 3.0179709282424536
ltoes -0.5129379566703918
269
root 0 0 0 -2.17473805876679 -5.186409769985511 -5.346387417361145
lowerback 11.186966425297728 2.044925834452579 4.785384932036758
upperback 0.44891924487197 3.389739208812066 1.5867293027212337
thorax -5.601603048177404 1.5716744200620094 -1.5303991094763734
lowerneck -16.411620596930593 -3.620085554083676 -1.3387122310364985
upperneck 19.696383401342462 -4.77918193047839 0.8021009997221299
head 9.053702540569414 -2.2578827464212265 -0.10344948002678506
rclavicle 9.045107732401397E-16 -2.0785017623160962E-15
rhumerus -29.368367402039507 -20.607027951831327 -76.64062925970364
rradius 28.30300340395068
rwrist 1.2948553359915307
rhand -19.21784565443507 23.772377870538836
rfingers 7.125020000000019
rthumb 7.098391493338563 -6.159684999908002
lclavicle -2.8762518967405125E-15 -2.3151184776463174E-15
lhumerus -36.164123360128336 1.8749667585529806 83.68744784764222
lradius 25.36763055587967
lwrist 4.9169687379365214
lhand -26.893252432385534 24.515825767791327
lfingers 7.12502000000002
lthumb -0.309829772277463 54.526183816379856
rfemur 1.5120173015659537 4.167758157759138 26.178373513976826
rtibia 41.098570338258966
rfoot -3.0223614583808276 -0.7337689972274917
rtoes -0.7945669726503051
lfemur -22.52029522257858 -3.035506366694211 -17.10865459831337
ltibia 25.23880111425852
lfoot -4.58037542004579 0.16966080947016637
ltoes 4.256659162741386
270
root 0 0 0 -2.5607109726763233 -5.162962355814795 -3.0926115692576803
lowerback 10.758001013326476 2.1008095173621704 2.9080350830259514
upperback 0.3864674662764223 3.2021052294575982 1.009994485941698
thorax -5.4681569505326335 1.52049409477664 -1.0497050247499882
lowerneck -16.254506612409124 -3.5461991281129386 -1.4909979026206583
upperneck 20.716108956603833 -4.698332091498671 0.9533166271487348
head 9.366880518791584 -2.2082939149824905 -0.02438266971417319
rclavicle 1.2078797296096435E-15 -2.5592358079571265E-15
rhumerus -30.020792355282527 -21.653628704192194 -76.31455629291645
rradius 27.64602177692937
rwrist 1.8083528881844844
rhand -19.097000627883883 23.423387465063502
rfingers 7.125020000000021
rthumb 7.214237629303639 -6.501655499102483
lclavicle -2.763935034605569E-15 -3.0720495080475215E-15
lhumerus -36.163943102625595 2.519193929890546 83.35232169211541
lradius 24.811798196583084
lwrist 4.590150192526282
lhand -26.77785697821803 24.413619087343427
lfingers 7.125020000000022
lthumb -0.198812501416187 54.428354028477884
rfemur -5.915016307731922 3.2805913669905244 27.42168437789274
rtibia 67.31430307247976
rfoot 12.361608934399595 -1.4763263003581528
rtoes 15.119115207021107
lfemur -19.748240915997297 -2.1791530082746804 -20.766090152892506
ltibia 28.289767529135958
lfoot -4.259395001411155 -2.2282928532212467
ltoes 8.165702712364968
